<svg version="1.2" xmlns="http://www.w3.org/2000/svg" viewBox="0 0 400 400" width="32" height="32">
	<style>
		.s0 { fill: #ffffff } 
		.s1 { fill: #148e8c } 
		.s2 { fill: #1c5489 } 
		.s3 { fill: #edb618 } 
	</style>
	<path id="Shape 4" fill-rule="evenodd" class="s0" d="m90 0h220c49.71 0 90 40.29 90 90v220c0 49.71-40.29 90-90 90h-220c-49.71 0-90-40.29-90-90v-220c0-49.71 40.29-90 90-90z"/>
	<path id="Layer 2" class="s1" d="m108.05 157.83c8.35 15.37 4.56 20.17 8.76 20.74 5.41 0.73 22.59-31.24 64.19-30.57 41.6 0.67 55 26 55 26 0 0 7.08 7.21 12 21 4.92 13.79 2.41 30.56 9 32 6.31 1.38 11.69-4.71 13-25 1.31-20.29-11.98-45.97-16-52-4.19-6.28 0.18-7.23 2.29-7.78 2.2-0.58 8.46 4.11 14.83 10.43 5.8 5.75 11.01 11.85 11.94 12.4 4.7 2.8 2.56-3.7 11.68-14.99 8.49-10.51 12.6-9.55 13.43-13.83 0.59-3.07-13.24-17.24-26.63-26.53-12.62-8.74-30.27-19.58-36.08-15-3.82 3.01-18.52 27.04-47.5 26.93-29.33-0.12-42.34-25.18-48.79-26.73-5.16-1.25-16.75 4.19-33 16.13-16.52 12.14-25.23 22.53-24.66 26.78 0.63 4.69 8.2 4.66 16.54 20.02z"/>
	<path id="Layer 3" class="s2" d="m311.61 230.66c14.28 7.18 23.04 2.66 26.77 6.18 2.64 2.5-0.79 24.33-10.27 45.44-9.89 22.04-22.95 36.4-40.31 51.58-20.9 18.28-59.7 29.55-67.22 29.55-5.76 0-10.77-3.46-10.89-10.02-0.13-6.76 4.83-10.31 9.31-12.39 4.48-2.08 20.06-6.45 19-13-1.06-6.55-13.77-2.45-36-14-22.23-11.55-32.95-20.04-33-27-0.05-6.96 5.19-6.96 7-7 1.81-0.04 23.19 10.96 41 11 17.81 0.04 41.51-6.89 56-25 14.49-18.11 18.52-32.3 18.9-38.95 0.11-2.09-0.01-7.16 2.76-7.31 2.93-0.15 5.92 5.38 16.95 10.92z"/>
	<path id="Layer 4" class="s3" d="m62.59 240.03c3.85-4.44 22.35-3.46 40.03-19.91 17.68-16.46 36.37-43.09 44.6-35.94 8.23 7.15-8.83 16-12.48 40.4-2.96 19.8-1.97 40.51 5.59 57.83 7.74 17.75 20.52 28.83 38.89 40.77 18.37 11.94 21.23 19.08 19 29-2.23 9.92-17.55 14.98-47 4-29.45-10.98-53.65-30.7-71-59-17.19-28.04-21.23-53-17.63-57.15z"/>
	<path id="Shape 3" fill-rule="evenodd" class="s2" d="m335.5 224c-22.4 0-40.5-18.1-40.5-40.5 0-22.4 18.1-40.5 40.5-40.5 22.4 0 40.5 18.1 40.5 40.5 0 22.4-18.1 40.5-40.5 40.5z"/>
	<path id="Shape 3 copy" fill-rule="evenodd" class="s1" d="m198.5 109c-22.4 0-40.5-18.1-40.5-40.5 0-22.4 18.1-40.5 40.5-40.5 22.4 0 40.5 18.1 40.5 40.5 0 22.4-18.1 40.5-40.5 40.5z"/>
	<path id="Shape 3 copy 2" fill-rule="evenodd" class="s3" d="m62.5 224c-22.4 0-40.5-18.1-40.5-40.5 0-22.4 18.1-40.5 40.5-40.5 22.4 0 40.5 18.1 40.5 40.5 0 22.4-18.1 40.5-40.5 40.5z"/>
</svg>